<svg width="54" height="54" viewBox="0 0 54 54" fill="none" xmlns="http://www.w3.org/2000/svg">
<path d="M0 0H37.59V10.74H53.7V53.7H0V0ZM48.33 16.11H37.59V21.48H42.96V26.85H37.59V32.22H42.96V37.59H37.59V42.96H42.96V48.33H48.33V16.11ZM32.22 5.37H5.37V48.33H10.74V42.96H26.85V48.33H32.22V5.37ZM10.74 10.74H16.11V16.11H10.74V10.74ZM26.85 10.74H21.48V16.11H26.85V10.74ZM10.74 21.48H16.11V26.85H10.74V21.48ZM26.85 21.48H21.48V26.85H26.85V21.48ZM10.74 32.22H16.11V37.59H10.74V32.22ZM26.85 32.22H21.48V37.59H26.85V32.22Z" fill="#FF0000"/>
</svg>
