<svg width="46" height="51" viewBox="0 0 46 51" fill="none" xmlns="http://www.w3.org/2000/svg">
<path d="M10.1556 0H35.5444V5.07778H10.1556V0ZM5.07778 10.1556V5.07778H10.1556V10.1556H5.07778ZM5.07778 30.4667H0V10.1556H5.07778V30.4667ZM10.1556 35.5444H5.07778V30.4667H10.1556V35.5444ZM15.2333 40.6222H10.1556V35.5444H15.2333V40.6222ZM20.3111 45.7H15.2333V40.6222H20.3111V45.7ZM25.3889 45.7V50.7778H20.3111V45.7H25.3889ZM30.4667 40.6222V45.7H25.3889V40.6222H30.4667ZM35.5444 35.5444V40.6222H30.4667V35.5444H35.5444ZM40.6222 30.4667V35.5444H35.5444V30.4667H40.6222ZM40.6222 10.1556H45.7V30.4667H40.6222V10.1556ZM40.6222 10.1556V5.07778H35.5444V10.1556H40.6222ZM27.9278 15.2333H17.7722V25.3889H27.9278V15.2333Z" fill="#FF0000"/>
</svg>
